<?xml version="1.0" standalone="no"?>
<!DOCTYPE svg PUBLIC "-//W3C//DTD SVG 20010904//EN"
 "http://www.w3.org/TR/2001/REC-SVG-20010904/DTD/svg10.dtd">
<svg version="1.0" xmlns="http://www.w3.org/2000/svg"
 width="300.000000pt" height="300.000000pt" viewBox="0 0 300.000000 300.000000"
 preserveAspectRatio="xMidYMid meet">
<metadata>
Created by potrace 1.11, written by Peter Selinger 2001-2013
</metadata>
<g transform="translate(0.000000,300.000000) scale(0.100000,-0.100000)"
fill="#000000" stroke="none">
<path d="M1380 2947 c-3 -3 -23 -7 -45 -10 -145 -20 -341 -118 -469 -233 l-29
-26 60 -60 60 -60 63 50 c97 78 201 128 331 158 60 14 227 13 299 -2 131 -27
299 -113 369 -188 l25 -27 63 63 63 62 -28 23 c-76 65 -142 113 -192 140 -57
31 -173 76 -225 88 -16 4 -39 9 -50 12 -29 7 -289 16 -295 10z"/>
<path d="M781 2615 c-71 -81 -137 -202 -174 -320 -30 -94 -40 -161 -42 -270
-1 -72 2 -104 19 -210 9 -54 55 -177 92 -244 63 -116 123 -187 237 -285 58
-49 65 -49 46 1 -12 32 -32 105 -58 209 -10 39 -28 85 -40 102 -36 51 -87 172
-106 252 -23 94 -23 231 -1 330 21 93 83 227 137 297 l42 53 -61 60 -60 60
-31 -35z"/>
<path d="M1395 2624 c-112 -20 -156 -38 -255 -108 -82 -59 -145 -132 -190
-221 -59 -118 -71 -181 -65 -360 3 -82 7 -163 10 -180 2 -16 7 -50 10 -75 4
-25 9 -61 11 -80 13 -92 80 -332 129 -466 63 -170 172 -392 266 -542 l64 -103
3 167 2 166 -38 68 c-52 89 -126 252 -162 353 -31 89 -82 288 -76 294 2 2 11
-3 19 -12 30 -30 163 -93 232 -110 68 -17 193 -23 245 -11 107 23 177 53 258
108 l43 29 -7 -28 c-54 -240 -149 -484 -252 -653 -20 -32 -22 -49 -22 -200 l0
-165 21 25 c35 44 144 231 194 335 27 55 54 111 61 125 22 46 113 304 133 380
22 80 48 202 57 260 3 19 7 42 9 50 10 38 19 187 19 315 1 117 -3 152 -21 210
-52 163 -166 298 -318 373 -118 59 -252 79 -380 56z m239 -194 c95 -32 176
-93 225 -167 135 -204 84 -476 -115 -608 -82 -55 -148 -75 -244 -76 -248 -1
-449 212 -434 463 10 177 126 328 298 388 69 24 201 24 270 0z"/>
<path d="M2137 2588 c-31 -30 -57 -58 -57 -61 0 -4 22 -39 49 -79 172 -255
180 -577 20 -833 -26 -41 -44 -90 -60 -155 -12 -52 -30 -119 -40 -149 -11 -30
-17 -56 -14 -59 5 -5 81 55 125 98 130 130 223 305 261 495 13 67 16 247 5
312 -28 165 -106 341 -198 447 l-34 39 -57 -55z"/>
<path d="M1209 1242 c53 -141 55 -143 160 -154 l34 -4 1 -418 c1 -230 -2 -423
-6 -429 -8 -13 -96 5 -170 34 l-46 18 24 -71 c14 -39 34 -88 44 -108 17 -34
22 -36 93 -48 41 -7 117 -12 168 -11 89 1 213 19 227 33 7 7 32 70 62 152 l18
51 -70 -24 c-39 -13 -88 -25 -111 -26 l-40 -2 -1 423 c-1 367 1 423 14 426 8
3 39 8 68 11 52 7 54 8 77 59 13 28 32 77 44 108 l20 56 -67 -23 c-170 -59
-364 -57 -523 5 l-48 19 28 -77z"/>
</g>
</svg>
